<?xml version="1.0" encoding="UTF-8"?>
<svg id="logo" xmlns="http://www.w3.org/2000/svg" viewBox="0 0 256 256">
  <defs>
    <style>
      .cls-1 {
        fill: #fff;
      }

      .cls-1, .cls-2 {
        stroke-width: 0px;
      }

      .cls-2 {
        fill: #2970ff;
      }
    </style>
  </defs>
  <rect id="bg" class="cls-2" width="256" height="256"/>
  <path id="r" class="cls-1" d="M195.96,177.95l47.23,47.04h-46.38l-77.9-77.6h48.5c21.43,0,38.81-17.35,38.82-38.78,0-21.43-17.35-38.81-38.78-38.82h-15.8l-39.22-38.8h52.87c42.92-.1,77.8,34.61,77.9,77.54v.06c0,31.53-13.94,56.14-47.23,69.36h-.01Z"/>
  <path id="l" class="cls-1" d="M60.03,78.04L12.81,31h46.44l77.9,77.6h-48.2c-21.43,0-38.81,17.35-38.82,38.78,0,21.43,17.35,38.81,38.78,38.82h15.74l38.92,38.8h-52.86c-42.92.1-77.8-34.61-77.9-77.54v-.06c0-31.53,13.94-56.14,47.23-69.36h0Z"/>
</svg>